<svg id="Layer_1" data-name="Layer 1" xmlns="http://www.w3.org/2000/svg" viewBox="0 0 3161.9456 1193.774"><defs><style>.cls-1{fill:#83adcc;}.cls-2{fill:#99c3e7;}.cls-3{fill:#96e286;}.cls-4{fill:#0c1516;}</style></defs><title>svg file</title><path class="cls-1" d="M546.8817,860.5942v267.2821a549.9934,549.9934,0,0,1-82.6637-6.2229L486.4136,856.601q1.3617.1937,2.7227.3887a368.2819,368.2819,0,0,0,51.3149,3.6564C542.6032,860.6461,544.7293,860.62,546.8817,860.5942Z" transform="translate(0 -34.113)"/><path class="cls-1" d="M546.8817,134.1243V777.075c-2.1524.0513-4.2785.0773-6.4305.0773a293.0915,293.0915,0,0,1-41.5393-2.9557c-1.8409-.26-3.7078-.5445-5.5231-.8559Z" transform="translate(0 -34.113)"/><path class="cls-2" d="M546.8817,34.113V134.1243L493.3888,773.3407a288.8928,288.8928,0,0,1-198.258-133.0191l-70.9431,43.7695c56.5264,91.2981,151.3768,156.46,262.2259,172.51L464.218,1121.6534C201.4214,1081.8253,0,854.9152,0,580.995,0,429.9815,61.22,293.2534,160.1673,194.3069,259.1408,95.3325,395.8676,34.113,546.8817,34.113Z" transform="translate(0 -34.113)"/><path class="cls-3" d="M1093.763,681.0057c0,151.014-61.2195,287.7409-160.1673,386.6881-98.9732,98.9737-235.7,160.1932-386.714,160.1932V860.5942c140.1237-2.3859,261.3966-82.43,322.6939-198.9845L795.78,622.871c-47.3734,89.9763-140.8239,151.844-248.8983,154.204V134.1243c151.014,0,287.7408,61.2195,386.714,160.1927C1032.5435,393.2648,1093.763,529.9916,1093.763,681.0057Z" transform="translate(0 -34.113)"/><path class="cls-4" d="M1877.8479,1053.1309H1712.6135V887.9121H1382.176v165.2188H1217.5354V558.0371q0-68.4843,25.9063-128.6562,25.8984-60.1407,70.5156-105.0625,44.6016-44.9062,104.7656-70.8125,60.1641-25.8985,128.6719-25.9063,68.5078,0,128.6719,25.9063,60.1405,25.9218,105.0625,70.8125,44.9063,44.9063,70.8125,105.0625,25.8984,60.164,25.9062,128.6562ZM1712.6135,723.2715V558.0371a161.413,161.413,0,0,0-12.9531-64.1719,164.9206,164.9206,0,0,0-88.0781-88.0937,165.5132,165.5132,0,0,0-128.375,0,164.9206,164.9206,0,0,0-88.0781,88.0937,161.1416,161.1416,0,0,0-12.9532,64.1719V723.2715Z" transform="translate(0 -34.113)"/><path class="cls-4" d="M2169.3176,1053.1309l-234.875-616.5625h179.0313l134.7187,384.5625,134.125-384.5625h179.625L2327.052,1053.1309Z" transform="translate(0 -34.113)"/><path class="cls-4" d="M2867.1956,902.3027a89.7028,89.7028,0,0,0,18.4218,3.75q9.211.8673,18.4219.8594a154.8833,154.8833,0,0,0,44.3281-6.3281,159.935,159.935,0,0,0,40-18.1406,148.6434,148.6434,0,0,0,33.3907-28.7813,151.61,151.61,0,0,0,23.9062-37.7187l115.1406,115.7187a309.9007,309.9007,0,0,1-50.3906,55.8438,318.2856,318.2856,0,0,1-61.5937,42.0312,306.9967,306.9967,0,0,1-69.6563,26.1875,316.2232,316.2232,0,0,1-75.125,8.9219q-65.0625,0-122.3281-24.1719a309.2974,309.2974,0,0,1-100.1719-67.3594q-42.8905-43.1718-67.6406-102.7656-24.75-59.5781-24.75-130.9687,0-73.1016,24.75-133.5469t67.6406-103.0469a305.9489,305.9489,0,0,1,100.1719-66.2031q57.2813-23.6016,122.3281-23.6094a309.7914,309.7914,0,0,1,75.4219,9.2188,315.5086,315.5086,0,0,1,131.8281,68.7812,313.465,313.465,0,0,1,50.6563,56.125Zm80.5937-324.1093a90.514,90.514,0,0,0-21.5937-5.1719,206.5512,206.5512,0,0,0-22.1563-1.1563,157.2725,157.2725,0,0,0-60.7344,11.7969,144.6234,144.6234,0,0,0-49.5156,33.6719q-21,21.8905-33.0937,52.6875t-12.0938,69.3594q0,8.6484.8594,19.5781.8671,10.9454,2.8906,22.1719,2.0157,11.2265,4.8906,21.5781a79.5049,79.5049,0,0,0,7.4844,18.4219ZM2899.1331,365.99l-65.0469-85.7812,170.9844-159.4531,94.4062,120.3125Z" transform="translate(0 -34.113)"/></svg>