<svg id="Layer_1" data-name="Layer 1" xmlns="http://www.w3.org/2000/svg" viewBox="0 0 3151.5696 1189.8838"><defs><style>.cls-1{fill:#83adcc;}.cls-2{fill:#99c3e7;}.cls-3{fill:#96e286;}.cls-4{fill:#fff;}</style></defs><title>svg file w</title><path class="cls-1" d="M556.1,859.846v266.4111a548.2073,548.2073,0,0,1-82.3943-6.2026l22.1233-264.1887q1.3572.193,2.7139.3874a367.08,367.08,0,0,0,51.1475,3.6446C551.835,859.8978,553.9541,859.8713,556.1,859.846Z" transform="translate(-11 -36.0581)"/><path class="cls-1" d="M556.1,135.7435V776.599c-2.1454.0511-4.2645.077-6.41.077A292.1314,292.1314,0,0,1,508.286,773.73c-1.8349-.2587-3.6957-.5426-5.505-.8531Z" transform="translate(-11 -36.0581)"/><path class="cls-2" d="M556.1,36.0581v99.6854L502.781,772.8768A287.9512,287.9512,0,0,1,305.169,640.2912l-70.7119,43.6269c56.3422,91.0006,150.8835,155.95,261.3714,171.9477l-22.1233,264.1887C211.765,1080.3561,11,854.1855,11,581.1579,11,430.6366,72.02,294.3541,170.6453,195.73,269.2963,97.0781,405.5775,36.0581,556.1,36.0581Z" transform="translate(-11 -36.0581)"/><path class="cls-3" d="M1101.1986,680.8427c0,150.522-61.02,286.8032-159.6453,385.428-98.6506,98.6512-234.9319,159.6712-385.4538,159.6712V859.846c139.6671-2.3781,260.5448-82.1617,321.6424-198.336l-73.5552-38.6125C756.9677,712.5806,663.8218,774.2467,556.1,776.599V135.7435c150.5219,0,286.8032,61.02,385.4538,159.6706C1040.1787,394.04,1101.1986,530.3208,1101.1986,680.8427Z" transform="translate(-11 -36.0581)"/><path class="cls-4" d="M1882.635,1051.7578H1717.9631V887.1016H1388.6506v164.6562H1224.5569V558.3511q0-68.2735,25.8125-128.2344,25.828-59.9532,70.2812-104.7031,44.4611-44.7423,104.4219-70.5625,59.9532-25.8282,128.2344-25.8282,68.25,0,128.2187,25.8282,59.9532,25.828,104.7188,70.5625a332.753,332.753,0,0,1,70.5625,104.7031q25.828,59.9531,25.8281,128.2344Zm-164.6719-328.75V558.3511a160.884,160.884,0,0,0-12.9062-63.9688,164.3061,164.3061,0,0,0-87.7813-87.7812,164.98,164.98,0,0,0-127.9375,0,164.3055,164.3055,0,0,0-87.7812,87.7812,160.6127,160.6127,0,0,0-12.9063,63.9688V723.0078Z" transform="translate(-11 -36.0581)"/><path class="cls-4" d="M2173.221,1051.7578,1939.1428,437.2886H2117.58l134.25,383.2505,133.6719-383.25h179l-234.0781,614.4692Z" transform="translate(-11 -36.0581)"/><path class="cls-4" d="M2868.82,901.4453a88.6962,88.6962,0,0,0,18.3437,3.7188q9.1875.8672,18.375.8593a154.338,154.338,0,0,0,44.1719-6.2968,159.48,159.48,0,0,0,39.875-18.0782,148.4683,148.4683,0,0,0,33.2813-28.6875,150.7526,150.7526,0,0,0,23.8125-37.5781l114.75,115.3125a308.9266,308.9266,0,0,1-50.2188,55.6563,316.1917,316.1917,0,0,1-61.3906,41.8906,306.9549,306.9549,0,0,1-69.4219,26.0937,314.7989,314.7989,0,0,1-74.8594,8.8907q-64.8281,0-121.9218-24.0938a308.0167,308.0167,0,0,1-99.8282-67.125q-42.75-43.0312-67.4062-102.4062-24.68-59.3907-24.6719-130.5313,0-72.8437,24.6719-133.0942,24.6563-60.2345,67.4062-102.7032a305.1622,305.1622,0,0,1,99.8282-65.9687q57.0938-23.5312,121.9218-23.5313a308.4814,308.4814,0,0,1,75.1563,9.1875,314.88,314.88,0,0,1,131.3906,68.5469,311.3669,311.3669,0,0,1,50.4844,55.9375Zm80.3281-323.0161a90.7447,90.7447,0,0,0-21.5312-5.1563,205.2915,205.2915,0,0,0-22.0782-1.1562,156.583,156.583,0,0,0-60.5312,11.7656,144.1682,144.1682,0,0,0-49.3438,33.5625q-20.9531,21.7969-32.9843,52.5-12.0469,30.7032-12.0469,69.125,0,8.625.8594,19.5156a220.2067,220.2067,0,0,0,2.8593,22.0782q2.0157,11.2031,4.875,21.5156a79.3777,79.3777,0,0,0,7.4688,18.3594ZM2900.57,366.5854l-64.8281-85.4843,170.3906-158.9219,94.0937,119.9062Z" transform="translate(-11 -36.0581)"/></svg>