<svg id="Layer_1" data-name="Layer 1" xmlns="http://www.w3.org/2000/svg" viewBox="0 0 3151.5634 1189.8859"><defs><style>.cls-1{fill:#e0e0e0;}.cls-2{fill:#fff;}</style></defs><title>svg file ww</title><path class="cls-1" d="M570.0969,859.8464V1126.258a548.21,548.21,0,0,1-82.3944-6.2026l22.1233-264.1892q1.3572.193,2.7139.3874a367.0832,367.0832,0,0,0,51.1477,3.6446C565.8324,859.8982,567.9516,859.8717,570.0969,859.8464Z" transform="translate(-24.9965 -36.057)"/><path class="cls-1" d="M570.0969,135.7427V776.5993c-2.1453.0511-4.2645.0769-6.4095.0769a292.1318,292.1318,0,0,1-41.404-2.946c-1.8349-.2587-3.6957-.5427-5.5051-.8531Z" transform="translate(-24.9965 -36.057)"/><path class="cls-2" d="M570.0969,36.057v99.6857L516.7783,772.8771A287.9523,287.9523,0,0,1,319.166,640.2913l-70.712,43.6269c56.3422,91.0008,150.8837,155.95,261.3718,171.948l-22.1233,264.1892c-261.9407-39.6985-462.706-265.8695-462.706-538.8976,0-150.5216,61.02-286.8043,159.6456-385.4286C283.2932,97.0771,419.5747,36.057,570.0969,36.057Z" transform="translate(-24.9965 -36.057)"/><path class="cls-2" d="M1115.1971,680.8428c0,150.5222-61.02,286.8037-159.6457,385.4286-98.6508,98.6515-234.9323,159.6716-385.4545,159.6716V859.8464C709.7643,857.4683,830.6422,777.6846,891.74,661.51l-73.5553-38.6125C770.9655,712.5807,677.8194,774.247,570.0969,776.5993V135.7427c150.5222,0,286.8037,61.02,385.4545,159.6708C1054.177,394.0391,1115.1971,530.3206,1115.1971,680.8428Z" transform="translate(-24.9965 -36.057)"/><path class="cls-2" d="M1896.6233,1051.7578H1731.9514V887.1016H1402.6389v164.6562H1238.5452V558.3521q0-68.2735,25.8125-128.2344,25.828-59.9532,70.2812-104.7031,44.4611-44.7423,104.4219-70.5625,59.9532-25.8282,128.2344-25.8282,68.25,0,128.2187,25.8282,59.9532,25.8281,104.7188,70.5625a332.753,332.753,0,0,1,70.5625,104.7031q25.828,59.9531,25.8281,128.2344Zm-164.6719-328.75V558.3521a160.884,160.884,0,0,0-12.9062-63.9688,164.3061,164.3061,0,0,0-87.7813-87.7812,164.98,164.98,0,0,0-127.9375,0,164.3055,164.3055,0,0,0-87.7812,87.7812,160.6127,160.6127,0,0,0-12.9063,63.9688V723.0078Z" transform="translate(-24.9965 -36.057)"/><path class="cls-2" d="M2187.21,1051.7578,1953.1321,437.29H2131.57l134.25,383.2495L2399.4915,437.29h179l-234.0782,614.4682Z" transform="translate(-24.9965 -36.057)"/><path class="cls-2" d="M2882.81,901.4453a88.6971,88.6971,0,0,0,18.3438,3.7188q9.1875.8672,18.375.8593a154.3385,154.3385,0,0,0,44.1719-6.2968,159.4821,159.4821,0,0,0,39.875-18.0782,148.4678,148.4678,0,0,0,33.2812-28.6875,150.7526,150.7526,0,0,0,23.8125-37.5781l114.75,115.3125a308.926,308.926,0,0,1-50.2187,55.6563,316.1924,316.1924,0,0,1-61.3907,41.8906,306.9559,306.9559,0,0,1-69.4218,26.0937,314.8,314.8,0,0,1-74.8594,8.8907q-64.8282,0-121.9219-24.0938a308.0163,308.0163,0,0,1-99.8281-67.125q-42.75-43.0312-67.4063-102.4062-24.68-59.3907-24.6718-130.5313,0-72.8437,24.6718-133.0932,24.6563-60.2345,67.4063-102.7032a305.1618,305.1618,0,0,1,99.8281-65.9687q57.0938-23.5312,121.9219-23.5313a308.48,308.48,0,0,1,75.1562,9.1875,314.88,314.88,0,0,1,131.3907,68.5469,311.3625,311.3625,0,0,1,50.4843,55.9375ZM2963.138,578.43a90.7466,90.7466,0,0,0-21.5313-5.1563,205.29,205.29,0,0,0-22.0781-1.1562,156.5832,156.5832,0,0,0-60.5313,11.7656,144.1669,144.1669,0,0,0-49.3437,33.5625q-20.9532,21.7969-32.9844,52.5-12.0468,30.7032-12.0469,69.125,0,8.625.8594,19.5156a220.1783,220.1783,0,0,0,2.8594,22.0782q2.0155,11.2031,4.875,21.5156a79.3732,79.3732,0,0,0,7.4687,18.3594ZM2914.56,366.5864l-64.8281-85.4843L3020.1223,122.18l94.0938,119.9062Z" transform="translate(-24.9965 -36.057)"/></svg>